<svg viewBox="0 0 32 32" xmlns="http://www.w3.org/2000/svg">
	<linearGradient id="red" x2="1" y2="1"> <stop style="stop-color:#f80;" offset="0" /> <stop style="stop-color:#80f;" offset="1" /> </linearGradient>
	<linearGradient id="blue" x2="1" y2="1"> <stop style="stop-color:#0f8;" offset="0" /> <stop style="stop-color:#08f;" offset="1" /> </linearGradient>
	<path style="fill:url(#red)" d="m 16,2.455e-4 a 15.99993,15.999929 0 0 1 1.043962,0.0683604 7.9999648,7.9999641 0 0 1 6.955672,7.931761 A 7.9999648,7.9999641 0 0 1 16,16 7.9999648,7.9999641 0 0 0 7.9998784,24.000121 7.9999648,7.9999641 0 0 0 14.955551,31.931882 15.99993,15.999929 0 0 1 -2.44e-4,16 15.99993,15.999929 0 0 1 14.955551,0.0686059 15.99993,15.999929 0 0 1 16,2.455e-4 Z" />
	<path style="fill:url(#blue)" d="M 17.043962,0.0686059 A 15.99993,15.999929 0 0 1 31.999756,16 15.99993,15.999929 0 0 1 17.043962,31.931882 15.99993,15.999929 0 0 1 16,32.000245 15.99993,15.999929 0 0 1 14.955551,31.931882 7.9999648,7.9999641 0 0 1 7.9998784,24.000121 7.9999648,7.9999641 0 0 1 16,16 7.9999648,7.9999641 0 0 0 23.999634,8.0003669 7.9999648,7.9999641 0 0 0 17.043962,0.0686059 Z" />
</svg>
